Coordinates
version=1
nRows=27
nColumns=12
inDegrees=yes

Units are S.I. units (second, meters, Newtons, ...)
Angles are in degrees

endheader
time	SC_y	SC_z	SC_x	AC_y	AC_z	AC_x	GH_y	GH_z	GH_yy	EL_x	PS_y
       0.0              -20.03           -3.4          57.31          61.86         -2.015         -13.99         -94.92          30.23         -12.76          11.64          143.8
   0.01389              -20.03         -3.398          57.31          61.86         -2.014         -13.99          -94.9          30.23         -12.77          11.64          143.8
   0.02777              -20.04         -3.396          57.31          61.86         -2.013         -13.99         -94.87          30.23         -12.79          11.64          143.8
   0.04166              -20.04         -3.393          57.32          61.86         -2.011         -13.99         -94.84          30.24         -12.81          11.64          143.8
   0.05555              -20.04          -3.39          57.32          61.86          -2.01         -13.99         -94.81          30.24         -12.83          11.64          143.8
   0.06944              -20.04         -3.388          57.33          61.85         -2.008         -13.99         -94.78          30.24         -12.85          11.64          143.8
   0.08332              -20.04         -3.385          57.33          61.85         -2.006          -14.0         -94.75          30.25         -12.87          11.65          143.7
   0.09721              -20.04         -3.381          57.34          61.85         -2.004          -14.0         -94.71          30.25         -12.89          11.65          143.7
    0.1111              -20.04         -3.378          57.35          61.85         -2.002          -14.0         -94.67          30.25         -12.91          11.65          143.7
     0.125              -20.04         -3.374          57.35          61.85           -2.0          -14.0         -94.63          30.26         -12.94          11.65          143.7
    0.1389              -20.04          -3.37          57.36          61.85         -1.998          -14.0         -94.58          30.26         -12.97          11.65          143.6
    0.1528              -20.05         -3.366          57.37          61.85         -1.995          -14.0         -94.54          30.27          -13.0          11.65          143.6
    0.1666              -20.05         -3.362          57.38          61.84         -1.993          -14.0         -94.48          30.27         -13.03          11.66          143.6
    0.1805              -20.05         -3.357          57.38          61.84          -1.99          -14.0         -94.43          30.28         -13.06          11.66          143.6
    0.1944              -20.05         -3.351          57.39          61.84         -1.986         -14.01         -94.37          30.29          -13.1          11.66          143.5
    0.2083              -20.05         -3.345           57.4          61.84         -1.983         -14.01          -94.3          30.29         -13.14          11.66          143.5
    0.2222              -20.05         -3.339          57.42          61.83         -1.979         -14.01         -94.23           30.3         -13.18          11.67          143.4
    0.2361              -20.06         -3.332          57.43          61.83         -1.975         -14.01         -94.15          30.31         -13.23          11.67          143.4
      0.25              -20.06         -3.325          57.44          61.83         -1.971         -14.01         -94.07          30.32         -13.29          11.67          143.4
    0.2639              -20.06         -3.316          57.46          61.83         -1.966         -14.02         -93.97          30.33         -13.34          11.68          143.3
    0.2777              -20.07         -3.307          57.47          61.82         -1.961         -14.02         -93.87          30.34         -13.41          11.68          143.2
    0.2916              -20.07         -3.297          57.49          61.82         -1.955         -14.02         -93.76          30.35         -13.48          11.69          143.2
    0.3055              -20.07         -3.286          57.51          61.81         -1.948         -14.03         -93.63          30.36         -13.55          11.69          143.1
    0.3194              -20.08         -3.274          57.53          61.81         -1.941         -14.03         -93.49          30.38         -13.64           11.7          143.0
    0.3333              -20.08         -3.261          57.56           61.8         -1.933         -14.04         -93.34          30.39         -13.73           11.7          142.9
    0.3472              -20.09         -3.246          57.59           61.8         -1.924         -14.04         -93.17          30.41         -13.84          11.71          142.8
    0.3611              -20.09         -3.229          57.62          61.79         -1.914         -14.05         -92.98          30.43         -13.96          11.72          142.7
